<?xml version="1.0" encoding="utf-8"?>
<svg id="master-artboard" viewBox="0 0 1200 630" version="1.1" xmlns="http://www.w3.org/2000/svg" x="0px" y="0px" style="enable-background:new 0 0 1400 980;" width="1200px" height="630px"><defs><style id="ee-google-fonts">@import url(https://fonts.googleapis.com/css?family=Asset:400|Archivo+Black:400);</style></defs><rect id="ee-background" x="0" y="0" width="1200" height="630" style="fill: rgb(0, 127, 255); fill-opacity: 1; pointer-events: none;"/><path d="M 142.94728088378906 197.02496337890625 C 144.12062072753906 196.98497009277344 145.0939483642578 196.84829711914062 145.86727905273438 196.61497497558594 C 146.64060974121094 196.3816375732422 147.2572784423828 196.00497436523438 147.71728515625 195.48497009277344 C 148.17727661132812 194.9716339111328 148.5039520263672 194.2949676513672 148.69728088378906 193.45497131347656 C 148.89060974121094 192.61497497558594 148.98728942871094 191.56163024902344 148.98728942871094 190.2949676513672 C 148.98728942871094 189.44163513183594 148.93728637695312 188.69497680664062 148.8372802734375 188.05496215820312 C 148.73728942871094 187.4149627685547 148.58395385742188 186.86830139160156 148.37728881835938 186.4149627685547 C 148.17062377929688 185.95497131347656 147.90728759765625 185.57496643066406 147.5872802734375 185.27496337890625 C 147.2606201171875 184.9749755859375 146.8739471435547 184.73829650878906 146.42727661132812 184.56497192382812 C 145.98062133789062 184.39163208007812 145.47061157226562 184.27163696289062 144.89727783203125 184.20497131347656 C 144.31727600097656 184.1316375732422 143.6672821044922 184.094970703125 142.94728088378906 184.094970703125 L 142.94728088378906 182.99496459960938 L 175.7972869873047 182.99496459960938 C 175.89727783203125 183.49496459960938 175.98394775390625 184.02163696289062 176.05728149414062 184.57496643066406 C 176.130615234375 185.12164306640625 176.19395446777344 185.671630859375 176.24728393554688 186.2249755859375 C 176.3006134033203 186.77830505371094 176.3372802734375 187.32164001464844 176.35728454589844 187.85496520996094 C 176.38394165039062 188.3883056640625 176.39727783203125 188.8849639892578 176.39727783203125 189.344970703125 L 175.1672821044922 189.344970703125 C 174.7872772216797 188.77163696289062 174.303955078125 188.24163818359375 173.71728515625 187.75497436523438 C 173.1239471435547 187.268310546875 172.457275390625 186.83163452148438 171.71728515625 186.44497680664062 C 170.97727966308594 186.0583038330078 170.1739501953125 185.7216339111328 169.30728149414062 185.43496704101562 C 168.44728088378906 185.15496826171875 167.56060791015625 184.91830444335938 166.64727783203125 184.7249755859375 C 165.74061584472656 184.53163146972656 164.82061767578125 184.3883056640625 163.8872833251953 184.2949676513672 C 162.9606170654297 184.20162963867188 162.053955078125 184.15496826171875 161.1672821044922 184.15496826171875 L 161.1672821044922 190.08497619628906 C 161.52728271484375 190.00497436523438 161.9639434814453 189.8782958984375 162.47727966308594 189.70497131347656 C 162.99061584472656 189.53163146972656 163.52728271484375 189.33497619628906 164.0872802734375 189.11497497558594 C 164.65394592285156 188.8949737548828 165.2239532470703 188.66163635253906 165.7972869873047 188.4149627685547 C 166.37728881835938 188.16830444335938 166.91395568847656 187.93496704101562 167.40728759765625 187.7149658203125 C 167.90061950683594 187.48829650878906 168.32728576660156 187.28497314453125 168.68728637695312 187.10496520996094 C 169.0472869873047 186.91830444335938 169.2972869873047 186.77830505371094 169.43728637695312 186.68496704101562 C 169.49728393554688 186.9582977294922 169.5472869873047 187.2649688720703 169.5872802734375 187.60496520996094 C 169.63394165039062 187.94497680664062 169.67062377929688 188.2949676513672 169.69728088378906 188.65496826171875 C 169.7239532470703 189.0149688720703 169.74395751953125 189.37164306640625 169.7572784423828 189.7249755859375 C 169.77061462402344 190.07164001464844 169.77728271484375 190.3949737548828 169.77728271484375 190.69497680664062 C 169.77728271484375 190.9683074951172 169.7672882080078 191.28163146972656 169.74728393554688 191.6349639892578 C 169.73394775390625 191.98829650878906 169.7139434814453 192.3416290283203 169.68728637695312 192.69497680664062 C 169.66061401367188 193.04830932617188 169.6239471435547 193.39163208007812 169.57728576660156 193.7249755859375 C 169.5372772216797 194.0583038330078 169.49061584472656 194.344970703125 169.43728637695312 194.58497619628906 C 169.27728271484375 194.49163818359375 169.01394653320312 194.35496520996094 168.64727783203125 194.1749725341797 C 168.28060913085938 193.99496459960938 167.85061645507812 193.79164123535156 167.35728454589844 193.56497192382812 C 166.85728454589844 193.3383026123047 166.32394409179688 193.1016387939453 165.7572784423828 192.85496520996094 C 165.18394470214844 192.60830688476562 164.61727905273438 192.3782958984375 164.05728149414062 192.1649627685547 C 163.5039520263672 191.94497680664062 162.97727966308594 191.74496459960938 162.47727966308594 191.56497192382812 C 161.97727966308594 191.3849639892578 161.553955078125 191.2516326904297 161.207275390625 191.1649627685547 C 161.2872772216797 192.25830078125 161.52395629882812 193.1782989501953 161.9172821044922 193.9249725341797 C 162.31729125976562 194.6782989501953 162.8872833251953 195.28497314453125 163.62728881835938 195.74496459960938 C 164.36727905273438 196.19830322265625 165.28060913085938 196.52496337890625 166.36727905273438 196.7249755859375 C 167.44728088378906 196.9249725341797 168.7239532470703 197.02496337890625 170.19728088378906 197.02496337890625 L 170.19728088378906 198.12496948242188 L 142.94728088378906 198.12496948242188 L 142.94728088378906 197.02496337890625 ZM 180.30918884277344 198.7949676513672 C 180.2225341796875 198.6282958984375 180.13919067382812 198.39830017089844 180.05918884277344 198.10496520996094 C 179.98585510253906 197.81163024902344 179.91586303710938 197.48497009277344 179.8491973876953 197.12496948242188 C 179.78253173828125 196.7649688720703 179.7191925048828 196.39163208007812 179.65919494628906 196.00497436523438 C 179.5991973876953 195.61830139160156 179.5491943359375 195.24496459960938 179.5092010498047 194.8849639892578 C 179.4691925048828 194.518310546875 179.43919372558594 194.18496704101562 179.419189453125 193.8849639892578 C 179.40586853027344 193.58497619628906 179.39920043945312 193.344970703125 179.39920043945312 193.1649627685547 L 180.58920288085938 193.1649627685547 C 180.8491973876953 193.69163513183594 181.18919372558594 194.15830993652344 181.60919189453125 194.56497192382812 C 182.02919006347656 194.9716339111328 182.5092010498047 195.32496643066406 183.0491943359375 195.62496948242188 C 183.58920288085938 195.931640625 184.1758575439453 196.19163513183594 184.80918884277344 196.40496826171875 C 185.44253540039062 196.61163330078125 186.0991973876953 196.78163146972656 186.77919006347656 196.9149627685547 C 187.4658660888672 197.04164123535156 188.16253662109375 197.1349639892578 188.86920166015625 197.19497680664062 C 189.57586669921875 197.25497436523438 190.27252197265625 197.28497314453125 190.95919799804688 197.28497314453125 C 192.0858612060547 197.28497314453125 193.02252197265625 197.23497009277344 193.76919555664062 197.1349639892578 C 194.52252197265625 197.03497314453125 195.1258544921875 196.90164184570312 195.57919311523438 196.73497009277344 C 196.03253173828125 196.56829833984375 196.35252380371094 196.37164306640625 196.53919982910156 196.1449737548828 C 196.72586059570312 195.91830444335938 196.81919860839844 195.671630859375 196.81919860839844 195.40496826171875 C 196.81919860839844 195.02496337890625 196.65586853027344 194.7149658203125 196.32919311523438 194.4749755859375 C 196.00253295898438 194.23497009277344 195.5558624267578 194.0449676513672 194.98919677734375 193.90496826171875 C 194.4225311279297 193.7649688720703 193.7625274658203 193.65496826171875 193.0092010498047 193.57496643066406 C 192.255859375 193.5016326904297 191.45252990722656 193.431640625 190.5991973876953 193.36497497558594 C 189.75253295898438 193.30496215820312 188.8858642578125 193.23829650878906 187.9991912841797 193.1649627685547 C 187.10586547851562 193.0916290283203 186.23585510253906 192.98162841796875 185.38919067382812 192.83497619628906 C 184.5425262451172 192.6883087158203 183.74252319335938 192.49496459960938 182.98919677734375 192.25497436523438 C 182.23585510253906 192.02163696289062 181.57586669921875 191.71163940429688 181.0092010498047 191.32496643066406 C 180.44253540039062 190.94497680664062 179.99252319335938 190.4749755859375 179.65919494628906 189.9149627685547 C 179.33253479003906 189.35496520996094 179.169189453125 188.681640625 179.169189453125 187.8949737548828 C 179.169189453125 187.1749725341797 179.342529296875 186.54164123535156 179.68919372558594 185.99496459960938 C 180.02919006347656 185.44163513183594 180.505859375 184.9582977294922 181.11920166015625 184.5449676513672 C 181.72586059570312 184.1316375732422 182.45252990722656 183.78163146972656 183.2991943359375 183.49496459960938 C 184.13919067382812 183.2149658203125 185.05918884277344 182.99163818359375 186.05918884277344 182.82496643066406 C 187.0525360107422 182.65164184570312 188.10586547851562 182.52830505371094 189.2191925048828 182.45497131347656 C 190.33253479003906 182.37496948242188 191.4691925048828 182.33497619628906 192.6291961669922 182.33497619628906 C 193.5491943359375 182.33497619628906 194.44918823242188 182.36497497558594 195.32919311523438 182.4249725341797 C 196.2158660888672 182.47830200195312 197.06919860839844 182.53497314453125 197.88919067382812 182.594970703125 C 198.7158660888672 182.66163635253906 199.505859375 182.7216339111328 200.2592010498047 182.77496337890625 C 201.0125274658203 182.82830810546875 201.72586059570312 182.85496520996094 202.39920043945312 182.85496520996094 C 202.81919860839844 182.85496520996094 203.18919372558594 182.84829711914062 203.5092010498047 182.83497619628906 C 203.82252502441406 182.81497192382812 204.1291961669922 182.78497314453125 204.42919921875 182.74496459960938 C 204.7225341796875 182.71163940429688 205.02252197265625 182.66163635253906 205.32919311523438 182.594970703125 C 205.6358642578125 182.52830505371094 205.98587036132812 182.44163513183594 206.3791961669922 182.33497619628906 C 206.4658660888672 182.50830078125 206.54586791992188 182.72830200195312 206.61920166015625 182.99496459960938 C 206.69253540039062 183.2616424560547 206.7625274658203 183.55496215820312 206.82919311523438 183.87496948242188 C 206.89585876464844 184.19497680664062 206.95919799804688 184.52830505371094 207.01919555664062 184.87496948242188 C 207.07252502441406 185.2149658203125 207.11920166015625 185.5449676513672 207.15919494628906 185.86497497558594 C 207.19918823242188 186.18496704101562 207.22586059570312 186.48497009277344 207.23919677734375 186.7649688720703 C 207.2592010498047 187.03829956054688 207.26919555664062 187.2649688720703 207.26919555664062 187.44497680664062 L 205.94918823242188 187.44497680664062 C 205.842529296875 187.1449737548828 205.6291961669922 186.8416290283203 205.3092041015625 186.53497314453125 C 204.99586486816406 186.22830200195312 204.592529296875 185.93496704101562 204.0991973876953 185.65496826171875 C 203.60586547851562 185.37496948242188 203.03919982910156 185.11497497558594 202.39920043945312 184.87496948242188 C 201.7592010498047 184.6282958984375 201.0592041015625 184.4149627685547 200.2991943359375 184.23497009277344 C 199.53919982910156 184.05496215820312 198.73587036132812 183.9149627685547 197.88919067382812 183.81497192382812 C 197.03585815429688 183.7149658203125 196.15586853027344 183.6649627685547 195.2491912841797 183.6649627685547 C 194.73587036132812 183.6649627685547 194.28253173828125 183.71163940429688 193.88919067382812 183.80496215820312 C 193.48919677734375 183.89830017089844 193.15252685546875 184.02163696289062 192.8791961669922 184.1749725341797 C 192.60586547851562 184.32830810546875 192.39920043945312 184.50497436523438 192.2592010498047 184.70497131347656 C 192.11920166015625 184.89830017089844 192.0491943359375 185.1016387939453 192.0491943359375 185.31497192382812 C 192.0491943359375 185.77496337890625 192.2058563232422 186.15164184570312 192.51919555664062 186.44497680664062 C 192.83253479003906 186.73829650878906 193.2592010498047 186.9749755859375 193.7991943359375 187.15496826171875 C 194.33920288085938 187.32830810546875 194.9658660888672 187.46163940429688 195.67919921875 187.55496215820312 C 196.3925323486328 187.64830017089844 197.15252685546875 187.73162841796875 197.95919799804688 187.80496215820312 C 198.77252197265625 187.87164306640625 199.60252380371094 187.94497680664062 200.44918823242188 188.02496337890625 C 201.29586791992188 188.10496520996094 202.12252807617188 188.2149658203125 202.92919921875 188.35496520996094 C 203.74252319335938 188.5016326904297 204.505859375 188.69497680664062 205.2191925048828 188.93496704101562 C 205.93252563476562 189.181640625 206.5592041015625 189.5016326904297 207.0991973876953 189.8949737548828 C 207.63919067382812 190.2949676513672 208.06585693359375 190.79164123535156 208.3791961669922 191.3849639892578 C 208.6858673095703 191.9716339111328 208.83920288085938 192.681640625 208.83920288085938 193.5149688720703 C 208.83920288085938 194.28163146972656 208.66253662109375 194.94497680664062 208.3092041015625 195.50497436523438 C 207.94918823242188 196.06497192382812 207.44918823242188 196.53829956054688 206.8092041015625 196.9249725341797 C 206.1758575439453 197.31829833984375 205.4258575439453 197.6349639892578 204.5592041015625 197.87496948242188 C 203.6858673095703 198.12164306640625 202.74586486816406 198.31163024902344 201.73919677734375 198.44497680664062 C 200.73252868652344 198.58497619628906 199.6758575439453 198.6782989501953 198.56919860839844 198.7249755859375 C 197.4558563232422 198.77163696289062 196.33920288085938 198.7949676513672 195.2191925048828 198.7949676513672 C 194.2191925048828 198.7949676513672 193.27586364746094 198.76829528808594 192.38919067382812 198.7149658203125 C 191.5092010498047 198.65496826171875 190.6358642578125 198.594970703125 189.76919555664062 198.53497314453125 C 188.90252685546875 198.4749755859375 188.01919555664062 198.4149627685547 187.11920166015625 198.35496520996094 C 186.22586059570312 198.3016357421875 185.27252197265625 198.27496337890625 184.2592010498047 198.27496337890625 C 183.84585571289062 198.27496337890625 183.4792022705078 198.28497314453125 183.15919494628906 198.30496215820312 C 182.84585571289062 198.31829833984375 182.5425262451172 198.344970703125 182.2491912841797 198.3849639892578 C 181.9558563232422 198.4249725341797 181.65586853027344 198.47830200195312 181.3491973876953 198.5449676513672 C 181.0491943359375 198.61163330078125 180.70252990722656 198.69497680664062 180.30918884277344 198.7949676513672 Z" transform="matrix(8.236173629760742, 0, 0, 8.236173629760742, -1092.3873291015625, -1242.2359619140625)" style="fill: rgb(155, 221, 255); white-space: pre; color: rgb(155, 221, 255);"/><path d="M 539.8753051757812 604.5103759765625 L 549.7352905273438 604.5103759765625 L 549.7352905273438 621.640380859375 L 539.8753051757812 621.640380859375 L 539.8753051757812 604.5103759765625 M 541.0952758789062 620.42041015625 L 548.5153198242188 620.42041015625 L 548.5153198242188 605.7304077148438 L 541.0952758789062 605.7304077148438 L 541.0952758789062 620.42041015625 ZM 563.8746948242188 604.5103759765625 L 573.7346801757812 604.5103759765625 L 573.7346801757812 621.640380859375 L 563.8746948242188 621.640380859375 L 563.8746948242188 604.5103759765625 M 565.0946655273438 620.42041015625 L 572.5147094726562 620.42041015625 L 572.5147094726562 605.7304077148438 L 565.0946655273438 605.7304077148438 L 565.0946655273438 620.42041015625 ZM 587.8740234375 604.5103759765625 L 597.7340087890625 604.5103759765625 L 597.7340087890625 621.640380859375 L 587.8740234375 621.640380859375 L 587.8740234375 604.5103759765625 M 589.093994140625 620.42041015625 L 596.5140380859375 620.42041015625 L 596.5140380859375 605.7304077148438 L 589.093994140625 605.7304077148438 L 589.093994140625 620.42041015625 ZM 611.8734130859375 604.5103759765625 L 621.7333984375 604.5103759765625 L 621.7333984375 621.640380859375 L 611.8734130859375 621.640380859375 L 611.8734130859375 604.5103759765625 M 613.0933837890625 620.42041015625 L 620.513427734375 620.42041015625 L 620.513427734375 605.7304077148438 L 613.0933837890625 605.7304077148438 L 613.0933837890625 620.42041015625 ZM 635.872802734375 604.5103759765625 L 645.7327880859375 604.5103759765625 L 645.7327880859375 621.640380859375 L 635.872802734375 621.640380859375 L 635.872802734375 604.5103759765625 M 637.0927734375 620.42041015625 L 644.5128173828125 620.42041015625 L 644.5128173828125 605.7304077148438 L 637.0927734375 605.7304077148438 L 637.0927734375 620.42041015625 ZM 659.8721313476562 604.5103759765625 L 669.7321166992188 604.5103759765625 L 669.7321166992188 621.640380859375 L 659.8721313476562 621.640380859375 L 659.8721313476562 604.5103759765625 M 661.0921020507812 620.42041015625 L 668.5121459960938 620.42041015625 L 668.5121459960938 605.7304077148438 L 661.0921020507812 605.7304077148438 L 661.0921020507812 620.42041015625 ZM 683.8715209960938 604.5103759765625 L 693.7315063476562 604.5103759765625 L 693.7315063476562 621.640380859375 L 683.8715209960938 621.640380859375 L 683.8715209960938 604.5103759765625 M 685.0914916992188 620.42041015625 L 692.5115356445312 620.42041015625 L 692.5115356445312 605.7304077148438 L 685.0914916992188 605.7304077148438 L 685.0914916992188 620.42041015625 ZM 707.8709106445312 604.5103759765625 L 717.7308959960938 604.5103759765625 L 717.7308959960938 621.640380859375 L 707.8709106445312 621.640380859375 L 707.8709106445312 604.5103759765625 M 709.0908813476562 620.42041015625 L 716.5109252929688 620.42041015625 L 716.5109252929688 605.7304077148438 L 709.0908813476562 605.7304077148438 L 709.0908813476562 620.42041015625 ZM 738.1044921875 604.5103759765625 L 747.9644775390625 604.5103759765625 L 747.9644775390625 621.640380859375 L 738.1044921875 621.640380859375 L 738.1044921875 604.5103759765625 M 739.324462890625 620.42041015625 L 746.7445068359375 620.42041015625 L 746.7445068359375 605.7304077148438 L 739.324462890625 605.7304077148438 L 739.324462890625 620.42041015625 ZM 762.1038818359375 604.5103759765625 L 771.9638671875 604.5103759765625 L 771.9638671875 621.640380859375 L 762.1038818359375 621.640380859375 L 762.1038818359375 604.5103759765625 M 763.3238525390625 620.42041015625 L 770.743896484375 620.42041015625 L 770.743896484375 605.7304077148438 L 763.3238525390625 605.7304077148438 L 763.3238525390625 620.42041015625 ZM 786.1032104492188 604.5103759765625 L 795.9631958007812 604.5103759765625 L 795.9631958007812 621.640380859375 L 786.1032104492188 621.640380859375 L 786.1032104492188 604.5103759765625 M 787.3231811523438 620.42041015625 L 794.7432250976562 620.42041015625 L 794.7432250976562 605.7304077148438 L 787.3231811523438 605.7304077148438 L 787.3231811523438 620.42041015625 ZM 810.1026000976562 604.5103759765625 L 819.9625854492188 604.5103759765625 L 819.9625854492188 621.640380859375 L 810.1026000976562 621.640380859375 L 810.1026000976562 604.5103759765625 M 811.3225708007812 620.42041015625 L 818.7426147460938 620.42041015625 L 818.7426147460938 605.7304077148438 L 811.3225708007812 605.7304077148438 L 811.3225708007812 620.42041015625 ZM 834.1019287109375 604.5103759765625 L 843.9619140625 604.5103759765625 L 843.9619140625 621.640380859375 L 834.1019287109375 621.640380859375 L 834.1019287109375 604.5103759765625 M 835.3218994140625 620.42041015625 L 842.741943359375 620.42041015625 L 842.741943359375 605.7304077148438 L 835.3218994140625 605.7304077148438 L 835.3218994140625 620.42041015625 Z" transform="matrix(3.1323652267456055, 0, 0, 3.1323652267456055, -1589.814453125, -1744.461181640625)" style="fill: rgb(255, 255, 255); white-space: pre; color: rgb(51, 51, 51);"/><path d="M 250.74143981933594 422.981689453125 L 260.6014404296875 422.981689453125 L 260.6014404296875 440.1116943359375 L 250.74143981933594 440.1116943359375 L 250.74143981933594 422.981689453125 M 251.96144104003906 438.8916931152344 L 259.3814392089844 438.8916931152344 L 259.3814392089844 424.2016906738281 L 251.96144104003906 424.2016906738281 L 251.96144104003906 438.8916931152344 ZM 274.73016357421875 422.981689453125 L 284.59014892578125 422.981689453125 L 284.59014892578125 440.1116943359375 L 274.73016357421875 440.1116943359375 L 274.73016357421875 422.981689453125 M 275.9501647949219 438.8916931152344 L 283.3701477050781 438.8916931152344 L 283.3701477050781 424.2016906738281 L 275.9501647949219 424.2016906738281 L 275.9501647949219 438.8916931152344 ZM 298.7188720703125 422.981689453125 L 308.578857421875 422.981689453125 L 308.578857421875 440.1116943359375 L 298.7188720703125 440.1116943359375 L 298.7188720703125 422.981689453125 M 299.9388732910156 438.8916931152344 L 307.3588562011719 438.8916931152344 L 307.3588562011719 424.2016906738281 L 299.9388732910156 424.2016906738281 L 299.9388732910156 438.8916931152344 ZM 322.70758056640625 422.981689453125 L 332.56756591796875 422.981689453125 L 332.56756591796875 440.1116943359375 L 322.70758056640625 440.1116943359375 L 322.70758056640625 422.981689453125 M 323.9275817871094 438.8916931152344 L 331.3475646972656 438.8916931152344 L 331.3475646972656 424.2016906738281 L 323.9275817871094 424.2016906738281 L 323.9275817871094 438.8916931152344 ZM 346.6962585449219 422.981689453125 L 356.5562438964844 422.981689453125 L 356.5562438964844 440.1116943359375 L 346.6962585449219 440.1116943359375 L 346.6962585449219 422.981689453125 M 347.916259765625 438.8916931152344 L 355.33624267578125 438.8916931152344 L 355.33624267578125 424.2016906738281 L 347.916259765625 424.2016906738281 L 347.916259765625 438.8916931152344 ZM 370.6849670410156 422.981689453125 L 380.5449523925781 422.981689453125 L 380.5449523925781 440.1116943359375 L 370.6849670410156 440.1116943359375 L 370.6849670410156 422.981689453125 M 371.90496826171875 438.8916931152344 L 379.324951171875 438.8916931152344 L 379.324951171875 424.2016906738281 L 371.90496826171875 424.2016906738281 L 371.90496826171875 438.8916931152344 ZM 394.6736755371094 422.981689453125 L 404.5336608886719 422.981689453125 L 404.5336608886719 440.1116943359375 L 394.6736755371094 440.1116943359375 L 394.6736755371094 422.981689453125 M 395.8936767578125 438.8916931152344 L 403.31365966796875 438.8916931152344 L 403.31365966796875 424.2016906738281 L 395.8936767578125 424.2016906738281 L 395.8936767578125 438.8916931152344 ZM 418.6623840332031 422.981689453125 L 428.5223693847656 422.981689453125 L 428.5223693847656 440.1116943359375 L 418.6623840332031 440.1116943359375 L 418.6623840332031 422.981689453125 M 419.88238525390625 438.8916931152344 L 427.3023681640625 438.8916931152344 L 427.3023681640625 424.2016906738281 L 419.88238525390625 424.2016906738281 L 419.88238525390625 438.8916931152344 ZM 442.6510925292969 422.981689453125 L 452.5110778808594 422.981689453125 L 452.5110778808594 440.1116943359375 L 442.6510925292969 440.1116943359375 L 442.6510925292969 422.981689453125 M 443.87109375 438.8916931152344 L 451.29107666015625 438.8916931152344 L 451.29107666015625 424.2016906738281 L 443.87109375 424.2016906738281 L 443.87109375 438.8916931152344 ZM 466.6398010253906 422.981689453125 L 476.4997863769531 422.981689453125 L 476.4997863769531 440.1116943359375 L 466.6398010253906 440.1116943359375 L 466.6398010253906 422.981689453125 M 467.85980224609375 438.8916931152344 L 475.27978515625 438.8916931152344 L 475.27978515625 424.2016906738281 L 467.85980224609375 424.2016906738281 L 467.85980224609375 438.8916931152344 ZM 490.6285095214844 422.981689453125 L 500.4884948730469 422.981689453125 L 500.4884948730469 440.1116943359375 L 490.6285095214844 440.1116943359375 L 490.6285095214844 422.981689453125 M 491.8485107421875 438.8916931152344 L 499.26849365234375 438.8916931152344 L 499.26849365234375 424.2016906738281 L 491.8485107421875 424.2016906738281 L 491.8485107421875 438.8916931152344 ZM 514.6171875 422.981689453125 L 524.4771728515625 422.981689453125 L 524.4771728515625 440.1116943359375 L 514.6171875 440.1116943359375 L 514.6171875 422.981689453125 M 515.837158203125 438.8916931152344 L 523.2572021484375 438.8916931152344 L 523.2572021484375 424.2016906738281 L 515.837158203125 424.2016906738281 L 515.837158203125 438.8916931152344 ZM 538.60595703125 422.981689453125 L 548.4659423828125 422.981689453125 L 548.4659423828125 440.1116943359375 L 538.60595703125 440.1116943359375 L 538.60595703125 422.981689453125 M 539.825927734375 438.8916931152344 L 547.2459716796875 438.8916931152344 L 547.2459716796875 424.2016906738281 L 539.825927734375 424.2016906738281 L 539.825927734375 438.8916931152344 ZM 562.5946044921875 422.981689453125 L 572.45458984375 422.981689453125 L 572.45458984375 440.1116943359375 L 562.5946044921875 440.1116943359375 L 562.5946044921875 422.981689453125 M 563.8145751953125 438.8916931152344 L 571.234619140625 438.8916931152344 L 571.234619140625 424.2016906738281 L 563.8145751953125 424.2016906738281 L 563.8145751953125 438.8916931152344 ZM 586.5833740234375 422.981689453125 L 596.443359375 422.981689453125 L 596.443359375 440.1116943359375 L 586.5833740234375 440.1116943359375 L 586.5833740234375 422.981689453125 M 587.8033447265625 438.8916931152344 L 595.223388671875 438.8916931152344 L 595.223388671875 424.2016906738281 L 587.8033447265625 424.2016906738281 L 587.8033447265625 438.8916931152344 ZM 610.572021484375 422.981689453125 L 620.4320068359375 422.981689453125 L 620.4320068359375 440.1116943359375 L 610.572021484375 440.1116943359375 L 610.572021484375 422.981689453125 M 611.7919921875 438.8916931152344 L 619.2120361328125 438.8916931152344 L 619.2120361328125 424.2016906738281 L 611.7919921875 424.2016906738281 L 611.7919921875 438.8916931152344 ZM 634.5607299804688 422.981689453125 L 644.4207153320312 422.981689453125 L 644.4207153320312 440.1116943359375 L 634.5607299804688 440.1116943359375 L 634.5607299804688 422.981689453125 M 635.7807006835938 438.8916931152344 L 643.2007446289062 438.8916931152344 L 643.2007446289062 424.2016906738281 L 635.7807006835938 424.2016906738281 L 635.7807006835938 438.8916931152344 ZM 658.5494384765625 422.981689453125 L 668.409423828125 422.981689453125 L 668.409423828125 440.1116943359375 L 658.5494384765625 440.1116943359375 L 658.5494384765625 422.981689453125 M 659.7694091796875 438.8916931152344 L 667.189453125 438.8916931152344 L 667.189453125 424.2016906738281 L 659.7694091796875 424.2016906738281 L 659.7694091796875 438.8916931152344 ZM 250.74143981933594 451.78167724609375 L 260.6014404296875 451.78167724609375 L 260.6014404296875 468.91168212890625 L 250.74143981933594 468.91168212890625 L 250.74143981933594 451.78167724609375 M 251.96144104003906 467.6916809082031 L 259.3814392089844 467.6916809082031 L 259.3814392089844 453.0016784667969 L 251.96144104003906 453.0016784667969 L 251.96144104003906 467.6916809082031 ZM 274.73016357421875 451.78167724609375 L 284.59014892578125 451.78167724609375 L 284.59014892578125 468.91168212890625 L 274.73016357421875 468.91168212890625 L 274.73016357421875 451.78167724609375 M 275.9501647949219 467.6916809082031 L 283.3701477050781 467.6916809082031 L 283.3701477050781 453.0016784667969 L 275.9501647949219 453.0016784667969 L 275.9501647949219 467.6916809082031 ZM 298.7188720703125 451.78167724609375 L 308.578857421875 451.78167724609375 L 308.578857421875 468.91168212890625 L 298.7188720703125 468.91168212890625 L 298.7188720703125 451.78167724609375 M 299.9388732910156 467.6916809082031 L 307.3588562011719 467.6916809082031 L 307.3588562011719 453.0016784667969 L 299.9388732910156 453.0016784667969 L 299.9388732910156 467.6916809082031 ZM 322.70758056640625 451.78167724609375 L 332.56756591796875 451.78167724609375 L 332.56756591796875 468.91168212890625 L 322.70758056640625 468.91168212890625 L 322.70758056640625 451.78167724609375 M 323.9275817871094 467.6916809082031 L 331.3475646972656 467.6916809082031 L 331.3475646972656 453.0016784667969 L 323.9275817871094 453.0016784667969 L 323.9275817871094 467.6916809082031 ZM 346.6962585449219 451.78167724609375 L 356.5562438964844 451.78167724609375 L 356.5562438964844 468.91168212890625 L 346.6962585449219 468.91168212890625 L 346.6962585449219 451.78167724609375 M 347.916259765625 467.6916809082031 L 355.33624267578125 467.6916809082031 L 355.33624267578125 453.0016784667969 L 347.916259765625 453.0016784667969 L 347.916259765625 467.6916809082031 ZM 370.6849670410156 451.78167724609375 L 380.5449523925781 451.78167724609375 L 380.5449523925781 468.91168212890625 L 370.6849670410156 468.91168212890625 L 370.6849670410156 451.78167724609375 M 371.90496826171875 467.6916809082031 L 379.324951171875 467.6916809082031 L 379.324951171875 453.0016784667969 L 371.90496826171875 453.0016784667969 L 371.90496826171875 467.6916809082031 ZM 394.6736755371094 451.78167724609375 L 404.5336608886719 451.78167724609375 L 404.5336608886719 468.91168212890625 L 394.6736755371094 468.91168212890625 L 394.6736755371094 451.78167724609375 M 395.8936767578125 467.6916809082031 L 403.31365966796875 467.6916809082031 L 403.31365966796875 453.0016784667969 L 395.8936767578125 453.0016784667969 L 395.8936767578125 467.6916809082031 ZM 418.6623840332031 451.78167724609375 L 428.5223693847656 451.78167724609375 L 428.5223693847656 468.91168212890625 L 418.6623840332031 468.91168212890625 L 418.6623840332031 451.78167724609375 M 419.88238525390625 467.6916809082031 L 427.3023681640625 467.6916809082031 L 427.3023681640625 453.0016784667969 L 419.88238525390625 453.0016784667969 L 419.88238525390625 467.6916809082031 ZM 442.6510925292969 451.78167724609375 L 452.5110778808594 451.78167724609375 L 452.5110778808594 468.91168212890625 L 442.6510925292969 468.91168212890625 L 442.6510925292969 451.78167724609375 M 443.87109375 467.6916809082031 L 451.29107666015625 467.6916809082031 L 451.29107666015625 453.0016784667969 L 443.87109375 453.0016784667969 L 443.87109375 467.6916809082031 ZM 466.6398010253906 451.78167724609375 L 476.4997863769531 451.78167724609375 L 476.4997863769531 468.91168212890625 L 466.6398010253906 468.91168212890625 L 466.6398010253906 451.78167724609375 M 467.85980224609375 467.6916809082031 L 475.27978515625 467.6916809082031 L 475.27978515625 453.0016784667969 L 467.85980224609375 453.0016784667969 L 467.85980224609375 467.6916809082031 ZM 490.6285095214844 451.78167724609375 L 500.4884948730469 451.78167724609375 L 500.4884948730469 468.91168212890625 L 490.6285095214844 468.91168212890625 L 490.6285095214844 451.78167724609375 M 491.8485107421875 467.6916809082031 L 499.26849365234375 467.6916809082031 L 499.26849365234375 453.0016784667969 L 491.8485107421875 453.0016784667969 L 491.8485107421875 467.6916809082031 ZM 514.6171875 451.78167724609375 L 524.4771728515625 451.78167724609375 L 524.4771728515625 468.91168212890625 L 514.6171875 468.91168212890625 L 514.6171875 451.78167724609375 M 515.837158203125 467.6916809082031 L 523.2572021484375 467.6916809082031 L 523.2572021484375 453.0016784667969 L 515.837158203125 453.0016784667969 L 515.837158203125 467.6916809082031 ZM 538.60595703125 451.78167724609375 L 548.4659423828125 451.78167724609375 L 548.4659423828125 468.91168212890625 L 538.60595703125 468.91168212890625 L 538.60595703125 451.78167724609375 M 539.825927734375 467.6916809082031 L 547.2459716796875 467.6916809082031 L 547.2459716796875 453.0016784667969 L 539.825927734375 453.0016784667969 L 539.825927734375 467.6916809082031 ZM 562.5946044921875 451.78167724609375 L 572.45458984375 451.78167724609375 L 572.45458984375 468.91168212890625 L 562.5946044921875 468.91168212890625 L 562.5946044921875 451.78167724609375 M 563.8145751953125 467.6916809082031 L 571.234619140625 467.6916809082031 L 571.234619140625 453.0016784667969 L 563.8145751953125 453.0016784667969 L 563.8145751953125 467.6916809082031 ZM 586.5833740234375 451.78167724609375 L 596.443359375 451.78167724609375 L 596.443359375 468.91168212890625 L 586.5833740234375 468.91168212890625 L 586.5833740234375 451.78167724609375 M 587.8033447265625 467.6916809082031 L 595.223388671875 467.6916809082031 L 595.223388671875 453.0016784667969 L 587.8033447265625 453.0016784667969 L 587.8033447265625 467.6916809082031 ZM 610.572021484375 451.78167724609375 L 620.4320068359375 451.78167724609375 L 620.4320068359375 468.91168212890625 L 610.572021484375 468.91168212890625 L 610.572021484375 451.78167724609375 M 611.7919921875 467.6916809082031 L 619.2120361328125 467.6916809082031 L 619.2120361328125 453.0016784667969 L 611.7919921875 453.0016784667969 L 611.7919921875 467.6916809082031 ZM 250.74143981933594 480.5816650390625 L 260.6014404296875 480.5816650390625 L 260.6014404296875 497.711669921875 L 250.74143981933594 497.711669921875 L 250.74143981933594 480.5816650390625 M 251.96144104003906 496.4916687011719 L 259.3814392089844 496.4916687011719 L 259.3814392089844 481.8016662597656 L 251.96144104003906 481.8016662597656 L 251.96144104003906 496.4916687011719 ZM 274.73016357421875 480.5816650390625 L 284.59014892578125 480.5816650390625 L 284.59014892578125 497.711669921875 L 274.73016357421875 497.711669921875 L 274.73016357421875 480.5816650390625 M 275.9501647949219 496.4916687011719 L 283.3701477050781 496.4916687011719 L 283.3701477050781 481.8016662597656 L 275.9501647949219 481.8016662597656 L 275.9501647949219 496.4916687011719 ZM 298.7188720703125 480.5816650390625 L 308.578857421875 480.5816650390625 L 308.578857421875 497.711669921875 L 298.7188720703125 497.711669921875 L 298.7188720703125 480.5816650390625 M 299.9388732910156 496.4916687011719 L 307.3588562011719 496.4916687011719 L 307.3588562011719 481.8016662597656 L 299.9388732910156 481.8016662597656 L 299.9388732910156 496.4916687011719 ZM 322.70758056640625 480.5816650390625 L 332.56756591796875 480.5816650390625 L 332.56756591796875 497.711669921875 L 322.70758056640625 497.711669921875 L 322.70758056640625 480.5816650390625 M 323.9275817871094 496.4916687011719 L 331.3475646972656 496.4916687011719 L 331.3475646972656 481.8016662597656 L 323.9275817871094 481.8016662597656 L 323.9275817871094 496.4916687011719 ZM 346.6962585449219 480.5816650390625 L 356.5562438964844 480.5816650390625 L 356.5562438964844 497.711669921875 L 346.6962585449219 497.711669921875 L 346.6962585449219 480.5816650390625 M 347.916259765625 496.4916687011719 L 355.33624267578125 496.4916687011719 L 355.33624267578125 481.8016662597656 L 347.916259765625 481.8016662597656 L 347.916259765625 496.4916687011719 ZM 370.6849670410156 480.5816650390625 L 380.5449523925781 480.5816650390625 L 380.5449523925781 497.711669921875 L 370.6849670410156 497.711669921875 L 370.6849670410156 480.5816650390625 M 371.90496826171875 496.4916687011719 L 379.324951171875 496.4916687011719 L 379.324951171875 481.8016662597656 L 371.90496826171875 481.8016662597656 L 371.90496826171875 496.4916687011719 ZM 394.6736755371094 480.5816650390625 L 404.5336608886719 480.5816650390625 L 404.5336608886719 497.711669921875 L 394.6736755371094 497.711669921875 L 394.6736755371094 480.5816650390625 M 395.8936767578125 496.4916687011719 L 403.31365966796875 496.4916687011719 L 403.31365966796875 481.8016662597656 L 395.8936767578125 481.8016662597656 L 395.8936767578125 496.4916687011719 ZM 418.6623840332031 480.5816650390625 L 428.5223693847656 480.5816650390625 L 428.5223693847656 497.711669921875 L 418.6623840332031 497.711669921875 L 418.6623840332031 480.5816650390625 M 419.88238525390625 496.4916687011719 L 427.3023681640625 496.4916687011719 L 427.3023681640625 481.8016662597656 L 419.88238525390625 481.8016662597656 L 419.88238525390625 496.4916687011719 ZM 442.6510925292969 480.5816650390625 L 452.5110778808594 480.5816650390625 L 452.5110778808594 497.711669921875 L 442.6510925292969 497.711669921875 L 442.6510925292969 480.5816650390625 M 443.87109375 496.4916687011719 L 451.29107666015625 496.4916687011719 L 451.29107666015625 481.8016662597656 L 443.87109375 481.8016662597656 L 443.87109375 496.4916687011719 ZM 466.6398010253906 480.5816650390625 L 476.4997863769531 480.5816650390625 L 476.4997863769531 497.711669921875 L 466.6398010253906 497.711669921875 L 466.6398010253906 480.5816650390625 M 467.85980224609375 496.4916687011719 L 475.27978515625 496.4916687011719 L 475.27978515625 481.8016662597656 L 467.85980224609375 481.8016662597656 L 467.85980224609375 496.4916687011719 ZM 490.6285095214844 480.5816650390625 L 500.4884948730469 480.5816650390625 L 500.4884948730469 497.711669921875 L 490.6285095214844 497.711669921875 L 490.6285095214844 480.5816650390625 M 491.8485107421875 496.4916687011719 L 499.26849365234375 496.4916687011719 L 499.26849365234375 481.8016662597656 L 491.8485107421875 481.8016662597656 L 491.8485107421875 496.4916687011719 ZM 514.6171875 480.5816650390625 L 524.4771728515625 480.5816650390625 L 524.4771728515625 497.711669921875 L 514.6171875 497.711669921875 L 514.6171875 480.5816650390625 M 515.837158203125 496.4916687011719 L 523.2572021484375 496.4916687011719 L 523.2572021484375 481.8016662597656 L 515.837158203125 481.8016662597656 L 515.837158203125 496.4916687011719 Z" transform="matrix(1.0106271505355835, 0, 0, 1.0106271505355835, 408.1131286621094, -171.91368103027344)" style="fill: rgb(255, 255, 255); white-space: pre; color: rgb(255, 255, 255);"/><path d="M 254.41409301757812 518.4940795898438 L 254.41409301757812 512.5640869140625 L 261.3240966796875 512.5640869140625 L 261.3240966796875 508.7840881347656 L 254.41409301757812 508.7840881347656 L 254.41409301757812 505.944091796875 L 262.4541015625 505.944091796875 L 262.4541015625 501.98406982421875 L 249.1140899658203 501.98406982421875 L 249.1140899658203 518.4940795898438 L 254.41409301757812 518.4940795898438 ZM 271.6607971191406 505.5140686035156 C 271.2874450683594 505.5140686035156 270.9207763671875 505.5574035644531 270.560791015625 505.6440734863281 C 270.20745849609375 505.7374267578125 269.8807678222656 505.87408447265625 269.5807800292969 506.0540771484375 C 269.2807922363281 506.2407531738281 269.0107727050781 506.4740905761719 268.7707824707031 506.75408935546875 C 268.52410888671875 507.0340881347656 268.32745361328125 507.3607482910156 268.1807861328125 507.73406982421875 L 267.8807678222656 505.8240661621094 L 263.9607849121094 505.8240661621094 L 263.9607849121094 518.4940795898438 L 268.73077392578125 518.4940795898438 L 268.73077392578125 512.8540649414062 C 268.73077392578125 512.3807373046875 268.7807922363281 511.9540710449219 268.8807678222656 511.5740661621094 C 268.97412109375 511.194091796875 269.1341247558594 510.87408447265625 269.36077880859375 510.61407470703125 C 269.5807800292969 510.35406494140625 269.87078857421875 510.1540832519531 270.23077392578125 510.0140686035156 C 270.5907897949219 509.8807373046875 271.0274353027344 509.8140869140625 271.540771484375 509.8140869140625 L 273.0807800292969 509.8140869140625 L 273.0807800292969 505.8040771484375 C 272.9674377441406 505.750732421875 272.8407897949219 505.7040710449219 272.7007751464844 505.6640930175781 C 272.5807800292969 505.62408447265625 272.4341125488281 505.58740234375 272.2607727050781 505.5540771484375 C 272.08746337890625 505.52740478515625 271.887451171875 505.5140686035156 271.6607971191406 505.5140686035156 ZM 281.54925537109375 505.5340881347656 C 280.4759216308594 505.5340881347656 279.499267578125 505.6707458496094 278.6192626953125 505.944091796875 C 277.7392578125 506.2174072265625 276.9892578125 506.6307373046875 276.3692626953125 507.18408203125 C 275.749267578125 507.7307434082031 275.2692565917969 508.41741943359375 274.92926025390625 509.24407958984375 C 274.5959167480469 510.0774230957031 274.42926025390625 511.04742431640625 274.42926025390625 512.154052734375 C 274.42926025390625 513.2940673828125 274.5992736816406 514.28076171875 274.93927001953125 515.1140747070312 C 275.2859191894531 515.9473876953125 275.7792663574219 516.6373901367188 276.41925048828125 517.18408203125 C 277.05926513671875 517.7307739257812 277.8392639160156 518.1340942382812 278.75927734375 518.3941040039062 C 279.672607421875 518.654052734375 280.7026062011719 518.7840576171875 281.8492736816406 518.7840576171875 C 282.9892578125 518.7840576171875 283.9859313964844 518.6707763671875 284.8392639160156 518.444091796875 C 285.6925964355469 518.2174072265625 286.40594482421875 517.8941040039062 286.9792785644531 517.4740600585938 C 287.55926513671875 517.0540771484375 287.9892578125 516.540771484375 288.2692565917969 515.93408203125 C 288.5559387207031 515.327392578125 288.69927978515625 514.6441040039062 288.69927978515625 513.8840942382812 L 284.06927490234375 513.8840942382812 C 284.06927490234375 514.1441040039062 284.0292663574219 514.3873901367188 283.94927978515625 514.6140747070312 C 283.8692626953125 514.8341064453125 283.7359313964844 515.0274047851562 283.54925537109375 515.194091796875 C 283.36260986328125 515.3607177734375 283.1225891113281 515.49072265625 282.8292541503906 515.5841064453125 C 282.5292663574219 515.6774291992188 282.1659240722656 515.7240600585938 281.7392578125 515.7240600585938 C 280.8326110839844 515.7240600585938 280.1825866699219 515.4840698242188 279.7892761230469 515.0040893554688 C 279.39593505859375 514.5241088867188 279.19927978515625 513.847412109375 279.19927978515625 512.9740600585938 L 288.69927978515625 512.9740600585938 L 288.69927978515625 512.154052734375 C 288.69927978515625 511.0140686035156 288.5426025390625 510.02740478515625 288.2292785644531 509.194091796875 C 287.9092712402344 508.3607482910156 287.4459228515625 507.674072265625 286.8392639160156 507.13409423828125 C 286.2259216308594 506.58740234375 285.4759216308594 506.18408203125 284.5892639160156 505.924072265625 C 283.7026062011719 505.6640930175781 282.68927001953125 505.5340881347656 281.54925537109375 505.5340881347656 M 281.7392578125 508.5840759277344 C 282.41925048828125 508.5840759277344 282.9459228515625 508.770751953125 283.31927490234375 509.1440734863281 C 283.6925964355469 509.5240783691406 283.8792724609375 510.04742431640625 283.8792724609375 510.7140808105469 L 279.2192687988281 510.7140808105469 C 279.3059387207031 510.0540771484375 279.5459289550781 509.5340881347656 279.93927001953125 509.1540832519531 C 280.3326110839844 508.7740783691406 280.9325866699219 508.5840759277344 281.7392578125 508.5840759277344 ZM 297.5562438964844 505.5340881347656 C 296.48291015625 505.5340881347656 295.5062561035156 505.6707458496094 294.6262512207031 505.944091796875 C 293.7462463378906 506.2174072265625 292.9962463378906 506.6307373046875 292.3762512207031 507.18408203125 C 291.7562561035156 507.7307434082031 291.2762451171875 508.41741943359375 290.9362487792969 509.24407958984375 C 290.6029052734375 510.0774230957031 290.4362487792969 511.04742431640625 290.4362487792969 512.154052734375 C 290.4362487792969 513.2940673828125 290.60626220703125 514.28076171875 290.9462585449219 515.1140747070312 C 291.29290771484375 515.9473876953125 291.7862548828125 516.6373901367188 292.4262390136719 517.18408203125 C 293.0662536621094 517.7307739257812 293.84625244140625 518.1340942382812 294.7662658691406 518.3941040039062 C 295.6795959472656 518.654052734375 296.7095947265625 518.7840576171875 297.85626220703125 518.7840576171875 C 298.9962463378906 518.7840576171875 299.992919921875 518.6707763671875 300.84625244140625 518.444091796875 C 301.6995849609375 518.2174072265625 302.4129333496094 517.8941040039062 302.98626708984375 517.4740600585938 C 303.5662536621094 517.0540771484375 303.9962463378906 516.540771484375 304.2762451171875 515.93408203125 C 304.56292724609375 515.327392578125 304.7062683105469 514.6441040039062 304.7062683105469 513.8840942382812 L 300.0762634277344 513.8840942382812 C 300.0762634277344 514.1441040039062 300.0362548828125 514.3873901367188 299.9562683105469 514.6140747070312 C 299.8762512207031 514.8341064453125 299.742919921875 515.0274047851562 299.5562438964844 515.194091796875 C 299.3695983886719 515.3607177734375 299.12957763671875 515.49072265625 298.83624267578125 515.5841064453125 C 298.5362548828125 515.6774291992188 298.17291259765625 515.7240600585938 297.7462463378906 515.7240600585938 C 296.839599609375 515.7240600585938 296.1895751953125 515.4840698242188 295.7962646484375 515.0040893554688 C 295.4029235839844 514.5241088867188 295.2062683105469 513.847412109375 295.2062683105469 512.9740600585938 L 304.7062683105469 512.9740600585938 L 304.7062683105469 512.154052734375 C 304.7062683105469 511.0140686035156 304.5495910644531 510.02740478515625 304.23626708984375 509.194091796875 C 303.916259765625 508.3607482910156 303.4529113769531 507.674072265625 302.84625244140625 507.13409423828125 C 302.23291015625 506.58740234375 301.48291015625 506.18408203125 300.59625244140625 505.924072265625 C 299.7095947265625 505.6640930175781 298.6962585449219 505.5340881347656 297.5562438964844 505.5340881347656 M 297.7462463378906 508.5840759277344 C 298.4262390136719 508.5840759277344 298.9529113769531 508.770751953125 299.3262634277344 509.1440734863281 C 299.6995849609375 509.5240783691406 299.8862609863281 510.04742431640625 299.8862609863281 510.7140808105469 L 295.22625732421875 510.7140808105469 C 295.31292724609375 510.0540771484375 295.55291748046875 509.5340881347656 295.9462585449219 509.1540832519531 C 296.339599609375 508.7740783691406 296.9395751953125 508.5840759277344 297.7462463378906 508.5840759277344 ZM 314.283203125 501.694091796875 C 313.30322265625 501.694091796875 312.3665466308594 501.78741455078125 311.47320556640625 501.9740905761719 C 310.5798645019531 502.16741943359375 309.793212890625 502.4740905761719 309.11322021484375 502.8940734863281 C 308.4331970214844 503.3074035644531 307.889892578125 503.8507385253906 307.48321533203125 504.5240783691406 C 307.0765380859375 505.1974182128906 306.8731994628906 506.0140686035156 306.8731994628906 506.9740905761719 C 306.8731994628906 507.78076171875 307.0132141113281 508.4640808105469 307.293212890625 509.0240783691406 C 307.5665588378906 509.5774230957031 307.9331970214844 510.04742431640625 308.3932189941406 510.43408203125 C 308.8465576171875 510.8140869140625 309.3665466308594 511.12408447265625 309.9532165527344 511.36407470703125 C 310.5398864746094 511.60406494140625 311.13653564453125 511.8007507324219 311.74322509765625 511.9540710449219 C 312.3498840332031 512.1140747070312 312.946533203125 512.2474365234375 313.533203125 512.3540649414062 C 314.119873046875 512.4607543945312 314.639892578125 512.5807495117188 315.09320068359375 512.7140502929688 C 315.55322265625 512.8407592773438 315.9198913574219 512.9940795898438 316.1932067871094 513.174072265625 C 316.47320556640625 513.3540649414062 316.61322021484375 513.5907592773438 316.61322021484375 513.8840942382812 C 316.61322021484375 514.1441040039062 316.53656005859375 514.347412109375 316.3832092285156 514.4940795898438 C 316.2298889160156 514.6473999023438 316.0398864746094 514.7573852539062 315.8132019042969 514.8240966796875 C 315.5798645019531 514.8973999023438 315.3265380859375 514.944091796875 315.05322265625 514.9640502929688 C 314.7798767089844 514.9840698242188 314.5232238769531 514.9940795898438 314.283203125 514.9940795898438 C 313.8765563964844 514.9940795898438 313.5098876953125 514.9674072265625 313.1831970214844 514.9140625 C 312.8498840332031 514.8607177734375 312.56988525390625 514.7607421875 312.34320068359375 514.6140747070312 C 312.10986328125 514.4607543945312 311.92987060546875 514.2474365234375 311.80322265625 513.9740600585938 C 311.6831970214844 513.7073974609375 311.6231994628906 513.3507690429688 311.6231994628906 512.904052734375 L 306.60321044921875 512.904052734375 C 306.60321044921875 514.077392578125 306.80987548828125 515.0440673828125 307.22320556640625 515.8040771484375 C 307.63653564453125 516.5640869140625 308.2098693847656 517.1674194335938 308.9432067871094 517.6140747070312 C 309.6698913574219 518.0540771484375 310.533203125 518.3607177734375 311.533203125 518.5340576171875 C 312.52655029296875 518.7007446289062 313.60321044921875 518.7840576171875 314.7632141113281 518.7840576171875 C 315.80322265625 518.7840576171875 316.76654052734375 518.6774291992188 317.6531982421875 518.4640502929688 C 318.5398864746094 518.250732421875 319.3065490722656 517.9107666015625 319.9532165527344 517.444091796875 C 320.6065368652344 516.9774169921875 321.1165466308594 516.3807373046875 321.48321533203125 515.654052734375 C 321.8498840332031 514.9207763671875 322.033203125 514.0440673828125 322.033203125 513.0241088867188 C 322.0198669433594 512.2573852539062 321.869873046875 511.6107482910156 321.5832214355469 511.0840759277344 C 321.30322265625 510.5574035644531 320.92987060546875 510.11407470703125 320.4632263183594 509.75408935546875 C 320.0032043457031 509.3940734863281 319.48321533203125 509.10406494140625 318.9031982421875 508.88409423828125 C 318.3232116699219 508.6640930175781 317.7298889160156 508.4807434082031 317.1231994628906 508.3340759277344 C 316.51654052734375 508.1874084472656 315.9232177734375 508.0607604980469 315.34320068359375 507.9540710449219 C 314.7698669433594 507.847412109375 314.25653076171875 507.7307434082031 313.80322265625 507.60406494140625 C 313.3498840332031 507.4707336425781 312.98321533203125 507.3107604980469 312.7032165527344 507.12408447265625 C 312.4232177734375 506.9374084472656 312.283203125 506.6874084472656 312.283203125 506.37408447265625 C 312.283203125 506.08740234375 312.466552734375 505.83740234375 312.8332214355469 505.62408447265625 C 313.1932067871094 505.4040832519531 313.74322509765625 505.2940673828125 314.48321533203125 505.2940673828125 C 314.86322021484375 505.2940673828125 315.1865539550781 505.3440856933594 315.4532165527344 505.444091796875 C 315.7265319824219 505.53741455078125 315.94989013671875 505.6607360839844 316.1231994628906 505.8140869140625 C 316.2898864746094 505.9674072265625 316.4132080078125 506.1440734863281 316.49322509765625 506.3440856933594 C 316.5732116699219 506.5440673828125 316.61322021484375 506.75408935546875 316.61322021484375 506.9740905761719 L 316.61322021484375 507.0640869140625 L 321.5832214355469 507.0640869140625 L 321.5832214355469 506.7840881347656 C 321.5632019042969 505.9040832519531 321.35986328125 505.1440734863281 320.97320556640625 504.50408935546875 C 320.5798645019531 503.86407470703125 320.05322265625 503.3340759277344 319.3932189941406 502.9140930175781 C 318.73321533203125 502.49407958984375 317.9632263183594 502.18408203125 317.0832214355469 501.98406982421875 C 316.2098693847656 501.7907409667969 315.27655029296875 501.694091796875 314.283203125 501.694091796875 ZM 330.1043701171875 501.98406982421875 L 326.54437255859375 501.98406982421875 L 325.51434326171875 505.8240661621094 L 323.54437255859375 505.8240661621094 L 323.54437255859375 509.0640869140625 L 325.3343505859375 509.0640869140625 L 325.3343505859375 515.404052734375 C 325.3343505859375 516.0507202148438 325.4410095214844 516.5907592773438 325.65435791015625 517.0241088867188 C 325.8677062988281 517.4573974609375 326.1676940917969 517.8040771484375 326.5543518066406 518.0640869140625 C 326.9410400390625 518.3240966796875 327.40435791015625 518.5107421875 327.9443664550781 518.6240844726562 C 328.4843444824219 518.7307739257812 329.07769775390625 518.7840576171875 329.724365234375 518.7840576171875 C 329.93768310546875 518.7840576171875 330.1777038574219 518.7741088867188 330.4443664550781 518.7540893554688 C 330.7176818847656 518.7340698242188 330.9943542480469 518.7073974609375 331.27435302734375 518.674072265625 C 331.5543518066406 518.6340942382812 331.82769775390625 518.58740234375 332.0943603515625 518.5340576171875 C 332.36102294921875 518.4740600585938 332.5943603515625 518.4140625 332.79437255859375 518.3540649414062 L 332.79437255859375 515.5440673828125 L 331.4443664550781 515.5440673828125 C 331.1710205078125 515.5440673828125 330.9510192871094 515.5073852539062 330.78436279296875 515.43408203125 C 330.61102294921875 515.367431640625 330.4710388183594 515.2607421875 330.3643493652344 515.1140747070312 C 330.26434326171875 514.9740600585938 330.1943664550781 514.8040771484375 330.15435791015625 514.6040649414062 C 330.12103271484375 514.3973999023438 330.1043701171875 514.1574096679688 330.1043701171875 513.8840942382812 L 330.1043701171875 509.0640869140625 L 332.79437255859375 509.0640869140625 L 332.79437255859375 505.8240661621094 L 330.1043701171875 505.8240661621094 L 330.1043701171875 501.98406982421875 ZM 348.21612548828125 505.8240661621094 L 343.51611328125 505.8240661621094 L 341.276123046875 514.2540893554688 L 341.1161193847656 514.2540893554688 L 338.6861267089844 505.8240661621094 L 333.5561218261719 505.8240661621094 L 338.59613037109375 518.4940795898438 C 338.5627746582031 518.6473999023438 338.5127868652344 518.827392578125 338.4461364746094 519.0340576171875 C 338.37945556640625 519.2340698242188 338.26947021484375 519.424072265625 338.1161193847656 519.6040649414062 C 337.95611572265625 519.7840576171875 337.7461242675781 519.9374389648438 337.4861145019531 520.0640869140625 C 337.22613525390625 520.1907348632812 336.8861083984375 520.2540893554688 336.46612548828125 520.2540893554688 L 334.5361328125 520.2540893554688 L 334.5361328125 523.1040649414062 C 334.83612060546875 523.2107543945312 335.22613525390625 523.3074340820312 335.70611572265625 523.3941040039062 C 336.1861267089844 523.4874267578125 336.71612548828125 523.5340576171875 337.2961120605469 523.5340576171875 C 338.21612548828125 523.5340576171875 339.0127868652344 523.3973999023438 339.6861267089844 523.1240844726562 C 340.3661193847656 522.857421875 340.95611572265625 522.4840698242188 341.45611572265625 522.0040893554688 C 341.95611572265625 521.5241088867188 342.3827819824219 520.9507446289062 342.7361145019531 520.2840576171875 C 343.0894470214844 519.6240844726562 343.41278076171875 518.8973999023438 343.70611572265625 518.1040649414062 L 348.21612548828125 505.8240661621094 ZM 354.60552978515625 501.0940856933594 L 349.82550048828125 501.0940856933594 L 349.82550048828125 518.4940795898438 L 354.60552978515625 518.4940795898438 L 354.60552978515625 501.0940856933594 ZM 364.197265625 505.5340881347656 C 363.1239318847656 505.5340881347656 362.14727783203125 505.6707458496094 361.26727294921875 505.944091796875 C 360.38726806640625 506.2174072265625 359.63726806640625 506.6307373046875 359.01727294921875 507.18408203125 C 358.39727783203125 507.7307434082031 357.9172668457031 508.41741943359375 357.5772705078125 509.24407958984375 C 357.2439270019531 510.0774230957031 357.0772705078125 511.04742431640625 357.0772705078125 512.154052734375 C 357.0772705078125 513.2940673828125 357.2472839355469 514.28076171875 357.5872802734375 515.1140747070312 C 357.9339294433594 515.9473876953125 358.4272766113281 516.6373901367188 359.0672607421875 517.18408203125 C 359.707275390625 517.7307739257812 360.4872741699219 518.1340942382812 361.40728759765625 518.3941040039062 C 362.32061767578125 518.654052734375 363.3506164550781 518.7840576171875 364.4972839355469 518.7840576171875 C 365.63726806640625 518.7840576171875 366.6339416503906 518.6707763671875 367.4872741699219 518.444091796875 C 368.3406066894531 518.2174072265625 369.053955078125 517.8941040039062 369.6272888183594 517.4740600585938 C 370.207275390625 517.0540771484375 370.63726806640625 516.540771484375 370.9172668457031 515.93408203125 C 371.2039489746094 515.327392578125 371.3472900390625 514.6441040039062 371.3472900390625 513.8840942382812 L 366.71728515625 513.8840942382812 C 366.71728515625 514.1441040039062 366.6772766113281 514.3873901367188 366.5972900390625 514.6140747070312 C 366.51727294921875 514.8341064453125 366.3839416503906 515.0274047851562 366.197265625 515.194091796875 C 366.0106201171875 515.3607177734375 365.7705993652344 515.49072265625 365.4772644042969 515.5841064453125 C 365.1772766113281 515.6774291992188 364.8139343261719 515.7240600585938 364.38726806640625 515.7240600585938 C 363.4806213378906 515.7240600585938 362.8305969238281 515.4840698242188 362.4372863769531 515.0040893554688 C 362.0439453125 514.5241088867188 361.8472900390625 513.847412109375 361.8472900390625 512.9740600585938 L 371.3472900390625 512.9740600585938 L 371.3472900390625 512.154052734375 C 371.3472900390625 511.0140686035156 371.19061279296875 510.02740478515625 370.8772888183594 509.194091796875 C 370.5572814941406 508.3607482910156 370.09393310546875 507.674072265625 369.4872741699219 507.13409423828125 C 368.8739318847656 506.58740234375 368.1239318847656 506.18408203125 367.2372741699219 505.924072265625 C 366.3506164550781 505.6640930175781 365.3372802734375 505.5340881347656 364.197265625 505.5340881347656 M 364.38726806640625 508.5840759277344 C 365.0672607421875 508.5840759277344 365.59393310546875 508.770751953125 365.96728515625 509.1440734863281 C 366.3406066894531 509.5240783691406 366.52728271484375 510.04742431640625 366.52728271484375 510.7140808105469 L 361.8672790527344 510.7140808105469 C 361.9539489746094 510.0540771484375 362.1939392089844 509.5340881347656 362.5872802734375 509.1540832519531 C 362.9806213378906 508.7740783691406 363.5805969238281 508.5840759277344 364.38726806640625 508.5840759277344 Z" transform="matrix(1.8482122421264648, 0, 0, 1.8482122421264648, 204.94993591308594, -575.1517944335938)" style="fill: rgb(255, 255, 255); white-space: pre; color: rgb(51, 51, 51);"/></svg>